<?xml version="1.0" encoding="UTF-8" standalone="no"?>
<!DOCTYPE svg PUBLIC "-//W3C//DTD SVG 1.1//EN"
 "http://www.w3.org/Graphics/SVG/1.1/DTD/svg11.dtd">
<!-- Generated by graphviz version 2.44.1 (20200629.0846)
 -->
<!-- Pages: 1 -->
<svg width="2124pt" height="548pt"
 viewBox="0.00 0.00 2123.91 548.00" xmlns="http://www.w3.org/2000/svg" xmlns:xlink="http://www.w3.org/1999/xlink">
<g id="graph0" class="graph" transform="scale(1 1) rotate(0) translate(4 544)">
<polygon fill="white" stroke="transparent" points="-4,4 -4,-544 2119.91,-544 2119.91,4 -4,4"/>
<!-- [root] azurerm_app_service_plan.sub&#45;vending&#45;app&#45;svc&#45;plan&#45;001 (expand) -->
<g id="node1" class="node">
<title>[root] azurerm_app_service_plan.sub&#45;vending&#45;app&#45;svc&#45;plan&#45;001 (expand)</title>
<polygon fill="none" stroke="black" points="1201.7,-180 860.7,-180 860.7,-144 1201.7,-144 1201.7,-180"/>
<text text-anchor="middle" x="1031.2" y="-158.3" font-family="Times New Roman,serif" font-size="14.00">azurerm_app_service_plan.sub&#45;vending&#45;app&#45;svc&#45;plan&#45;001</text>
</g>
<!-- [root] azurerm_resource_group.sub&#45;vending&#45;rsg&#45;001 (expand) -->
<g id="node4" class="node">
<title>[root] azurerm_resource_group.sub&#45;vending&#45;rsg&#45;001 (expand)</title>
<polygon fill="none" stroke="black" points="1519.7,-108 1244.7,-108 1244.7,-72 1519.7,-72 1519.7,-108"/>
<text text-anchor="middle" x="1382.2" y="-86.3" font-family="Times New Roman,serif" font-size="14.00">azurerm_resource_group.sub&#45;vending&#45;rsg&#45;001</text>
</g>
<!-- [root] azurerm_app_service_plan.sub&#45;vending&#45;app&#45;svc&#45;plan&#45;001 (expand)&#45;&gt;[root] azurerm_resource_group.sub&#45;vending&#45;rsg&#45;001 (expand) -->
<g id="edge1" class="edge">
<title>[root] azurerm_app_service_plan.sub&#45;vending&#45;app&#45;svc&#45;plan&#45;001 (expand)&#45;&gt;[root] azurerm_resource_group.sub&#45;vending&#45;rsg&#45;001 (expand)</title>
<path fill="none" stroke="black" d="M1116.61,-143.97C1167.99,-133.72 1233.5,-120.66 1286.6,-110.07"/>
<polygon fill="black" stroke="black" points="1287.58,-113.44 1296.7,-108.05 1286.21,-106.57 1287.58,-113.44"/>
</g>
<!-- [root] azurerm_application_insights.sub&#45;vending&#45;app&#45;insi&#45;001 (expand) -->
<g id="node2" class="node">
<title>[root] azurerm_application_insights.sub&#45;vending&#45;app&#45;insi&#45;001 (expand)</title>
<polygon fill="none" stroke="black" points="1544.2,-180 1220.2,-180 1220.2,-144 1544.2,-144 1544.2,-180"/>
<text text-anchor="middle" x="1382.2" y="-158.3" font-family="Times New Roman,serif" font-size="14.00">azurerm_application_insights.sub&#45;vending&#45;app&#45;insi&#45;001</text>
</g>
<!-- [root] azurerm_application_insights.sub&#45;vending&#45;app&#45;insi&#45;001 (expand)&#45;&gt;[root] azurerm_resource_group.sub&#45;vending&#45;rsg&#45;001 (expand) -->
<g id="edge2" class="edge">
<title>[root] azurerm_application_insights.sub&#45;vending&#45;app&#45;insi&#45;001 (expand)&#45;&gt;[root] azurerm_resource_group.sub&#45;vending&#45;rsg&#45;001 (expand)</title>
<path fill="none" stroke="black" d="M1382.2,-143.7C1382.2,-135.98 1382.2,-126.71 1382.2,-118.11"/>
<polygon fill="black" stroke="black" points="1385.7,-118.1 1382.2,-108.1 1378.7,-118.1 1385.7,-118.1"/>
</g>
<!-- [root] azurerm_function_app.sub&#45;vending&#45;func&#45;app&#45;001 (expand) -->
<g id="node3" class="node">
<title>[root] azurerm_function_app.sub&#45;vending&#45;func&#45;app&#45;001 (expand)</title>
<polygon fill="none" stroke="black" points="1529.2,-252 1235.2,-252 1235.2,-216 1529.2,-216 1529.2,-252"/>
<text text-anchor="middle" x="1382.2" y="-230.3" font-family="Times New Roman,serif" font-size="14.00">azurerm_function_app.sub&#45;vending&#45;func&#45;app&#45;001</text>
</g>
<!-- [root] azurerm_function_app.sub&#45;vending&#45;func&#45;app&#45;001 (expand)&#45;&gt;[root] azurerm_app_service_plan.sub&#45;vending&#45;app&#45;svc&#45;plan&#45;001 (expand) -->
<g id="edge3" class="edge">
<title>[root] azurerm_function_app.sub&#45;vending&#45;func&#45;app&#45;001 (expand)&#45;&gt;[root] azurerm_app_service_plan.sub&#45;vending&#45;app&#45;svc&#45;plan&#45;001 (expand)</title>
<path fill="none" stroke="black" d="M1296.78,-215.97C1245.4,-205.72 1179.89,-192.66 1126.79,-182.07"/>
<polygon fill="black" stroke="black" points="1127.18,-178.57 1116.69,-180.05 1125.81,-185.44 1127.18,-178.57"/>
</g>
<!-- [root] azurerm_function_app.sub&#45;vending&#45;func&#45;app&#45;001 (expand)&#45;&gt;[root] azurerm_application_insights.sub&#45;vending&#45;app&#45;insi&#45;001 (expand) -->
<g id="edge4" class="edge">
<title>[root] azurerm_function_app.sub&#45;vending&#45;func&#45;app&#45;001 (expand)&#45;&gt;[root] azurerm_application_insights.sub&#45;vending&#45;app&#45;insi&#45;001 (expand)</title>
<path fill="none" stroke="black" d="M1382.2,-215.7C1382.2,-207.98 1382.2,-198.71 1382.2,-190.11"/>
<polygon fill="black" stroke="black" points="1385.7,-190.1 1382.2,-180.1 1378.7,-190.1 1385.7,-190.1"/>
</g>
<!-- [root] azurerm_storage_account.sub&#45;vending&#45;sac&#45;func&#45;001 (expand) -->
<g id="node5" class="node">
<title>[root] azurerm_storage_account.sub&#45;vending&#45;sac&#45;func&#45;001 (expand)</title>
<polygon fill="none" stroke="black" points="1872.2,-180 1562.2,-180 1562.2,-144 1872.2,-144 1872.2,-180"/>
<text text-anchor="middle" x="1717.2" y="-158.3" font-family="Times New Roman,serif" font-size="14.00">azurerm_storage_account.sub&#45;vending&#45;sac&#45;func&#45;001</text>
</g>
<!-- [root] azurerm_function_app.sub&#45;vending&#45;func&#45;app&#45;001 (expand)&#45;&gt;[root] azurerm_storage_account.sub&#45;vending&#45;sac&#45;func&#45;001 (expand) -->
<g id="edge5" class="edge">
<title>[root] azurerm_function_app.sub&#45;vending&#45;func&#45;app&#45;001 (expand)&#45;&gt;[root] azurerm_storage_account.sub&#45;vending&#45;sac&#45;func&#45;001 (expand)</title>
<path fill="none" stroke="black" d="M1463.72,-215.97C1512.65,-205.74 1575.01,-192.71 1625.64,-182.13"/>
<polygon fill="black" stroke="black" points="1626.53,-185.52 1635.6,-180.05 1625.09,-178.67 1626.53,-185.52"/>
</g>
<!-- [root] provider[&quot;registry.terraform.io/hashicorp/azurerm&quot;] -->
<g id="node9" class="node">
<title>[root] provider[&quot;registry.terraform.io/hashicorp/azurerm&quot;]</title>
<polygon fill="none" stroke="black" points="975.2,-36 697.52,-18 975.2,0 1252.87,-18 975.2,-36"/>
<text text-anchor="middle" x="975.2" y="-14.3" font-family="Times New Roman,serif" font-size="14.00">provider[&quot;registry.terraform.io/hashicorp/azurerm&quot;]</text>
</g>
<!-- [root] azurerm_resource_group.sub&#45;vending&#45;rsg&#45;001 (expand)&#45;&gt;[root] provider[&quot;registry.terraform.io/hashicorp/azurerm&quot;] -->
<g id="edge6" class="edge">
<title>[root] azurerm_resource_group.sub&#45;vending&#45;rsg&#45;001 (expand)&#45;&gt;[root] provider[&quot;registry.terraform.io/hashicorp/azurerm&quot;]</title>
<path fill="none" stroke="black" d="M1283.15,-71.97C1213.91,-60.06 1122.54,-44.34 1057.35,-33.13"/>
<polygon fill="black" stroke="black" points="1057.56,-29.62 1047.11,-31.37 1056.38,-36.51 1057.56,-29.62"/>
</g>
<!-- [root] var.defaultTags -->
<g id="node13" class="node">
<title>[root] var.defaultTags</title>
<polygon fill="none" stroke="black" points="1367.7,-36 1270.7,-36 1270.7,0 1373.7,0 1373.7,-30 1367.7,-36"/>
<polyline fill="none" stroke="black" points="1367.7,-36 1367.7,-30 "/>
<polyline fill="none" stroke="black" points="1373.7,-30 1367.7,-30 "/>
<text text-anchor="middle" x="1322.2" y="-14.3" font-family="Times New Roman,serif" font-size="14.00">var.defaultTags</text>
</g>
<!-- [root] azurerm_resource_group.sub&#45;vending&#45;rsg&#45;001 (expand)&#45;&gt;[root] var.defaultTags -->
<g id="edge7" class="edge">
<title>[root] azurerm_resource_group.sub&#45;vending&#45;rsg&#45;001 (expand)&#45;&gt;[root] var.defaultTags</title>
<path fill="none" stroke="black" d="M1367.36,-71.7C1360.17,-63.3 1351.4,-53.07 1343.5,-43.86"/>
<polygon fill="black" stroke="black" points="1346.02,-41.42 1336.86,-36.1 1340.71,-45.97 1346.02,-41.42"/>
</g>
<!-- [root] var.namePrefix -->
<g id="node15" class="node">
<title>[root] var.namePrefix</title>
<polygon fill="none" stroke="black" points="1486.2,-36 1392.2,-36 1392.2,0 1492.2,0 1492.2,-30 1486.2,-36"/>
<polyline fill="none" stroke="black" points="1486.2,-36 1486.2,-30 "/>
<polyline fill="none" stroke="black" points="1492.2,-30 1486.2,-30 "/>
<text text-anchor="middle" x="1442.2" y="-14.3" font-family="Times New Roman,serif" font-size="14.00">var.namePrefix</text>
</g>
<!-- [root] azurerm_resource_group.sub&#45;vending&#45;rsg&#45;001 (expand)&#45;&gt;[root] var.namePrefix -->
<g id="edge8" class="edge">
<title>[root] azurerm_resource_group.sub&#45;vending&#45;rsg&#45;001 (expand)&#45;&gt;[root] var.namePrefix</title>
<path fill="none" stroke="black" d="M1397.03,-71.7C1404.22,-63.3 1412.99,-53.07 1420.89,-43.86"/>
<polygon fill="black" stroke="black" points="1423.68,-45.97 1427.53,-36.1 1418.37,-41.42 1423.68,-45.97"/>
</g>
<!-- [root] var.region -->
<g id="node16" class="node">
<title>[root] var.region</title>
<polygon fill="none" stroke="black" points="1576.2,-36 1510.2,-36 1510.2,0 1582.2,0 1582.2,-30 1576.2,-36"/>
<polyline fill="none" stroke="black" points="1576.2,-36 1576.2,-30 "/>
<polyline fill="none" stroke="black" points="1582.2,-30 1576.2,-30 "/>
<text text-anchor="middle" x="1546.2" y="-14.3" font-family="Times New Roman,serif" font-size="14.00">var.region</text>
</g>
<!-- [root] azurerm_resource_group.sub&#45;vending&#45;rsg&#45;001 (expand)&#45;&gt;[root] var.region -->
<g id="edge9" class="edge">
<title>[root] azurerm_resource_group.sub&#45;vending&#45;rsg&#45;001 (expand)&#45;&gt;[root] var.region</title>
<path fill="none" stroke="black" d="M1422.31,-71.88C1446.01,-61.76 1476.07,-48.93 1500.65,-38.44"/>
<polygon fill="black" stroke="black" points="1502.3,-41.54 1510.12,-34.4 1499.55,-35.1 1502.3,-41.54"/>
</g>
<!-- [root] azurerm_storage_account.sub&#45;vending&#45;sac&#45;func&#45;001 (expand)&#45;&gt;[root] azurerm_resource_group.sub&#45;vending&#45;rsg&#45;001 (expand) -->
<g id="edge10" class="edge">
<title>[root] azurerm_storage_account.sub&#45;vending&#45;sac&#45;func&#45;001 (expand)&#45;&gt;[root] azurerm_resource_group.sub&#45;vending&#45;rsg&#45;001 (expand)</title>
<path fill="none" stroke="black" d="M1635.67,-143.97C1586.74,-133.74 1524.38,-120.71 1473.75,-110.13"/>
<polygon fill="black" stroke="black" points="1474.3,-106.67 1463.79,-108.05 1472.86,-113.52 1474.3,-106.67"/>
</g>
<!-- [root] data.azurerm_function_app_host_keys.sub&#45;vending&#45;func&#45;app&#45;001 (expand) -->
<g id="node6" class="node">
<title>[root] data.azurerm_function_app_host_keys.sub&#45;vending&#45;func&#45;app&#45;001 (expand)</title>
<polygon fill="none" stroke="black" points="2036.2,-324 1650.2,-324 1650.2,-288 2036.2,-288 2036.2,-324"/>
<text text-anchor="middle" x="1843.2" y="-302.3" font-family="Times New Roman,serif" font-size="14.00">data.azurerm_function_app_host_keys.sub&#45;vending&#45;func&#45;app&#45;001</text>
</g>
<!-- [root] data.azurerm_function_app_host_keys.sub&#45;vending&#45;func&#45;app&#45;001 (expand)&#45;&gt;[root] azurerm_function_app.sub&#45;vending&#45;func&#45;app&#45;001 (expand) -->
<g id="edge11" class="edge">
<title>[root] data.azurerm_function_app_host_keys.sub&#45;vending&#45;func&#45;app&#45;001 (expand)&#45;&gt;[root] azurerm_function_app.sub&#45;vending&#45;func&#45;app&#45;001 (expand)</title>
<path fill="none" stroke="black" d="M1731.01,-287.97C1662.55,-277.57 1574.99,-264.27 1504.72,-253.6"/>
<polygon fill="black" stroke="black" points="1504.89,-250.09 1494.48,-252.05 1503.84,-257.01 1504.89,-250.09"/>
</g>
<!-- [root] null_resource.deploy&#45;function&#45;app (expand) -->
<g id="node7" class="node">
<title>[root] null_resource.deploy&#45;function&#45;app (expand)</title>
<polygon fill="none" stroke="black" points="606.7,-396 397.7,-396 397.7,-360 606.7,-360 606.7,-396"/>
<text text-anchor="middle" x="502.2" y="-374.3" font-family="Times New Roman,serif" font-size="14.00">null_resource.deploy&#45;function&#45;app</text>
</g>
<!-- [root] null_resource.deploy&#45;function&#45;app (expand)&#45;&gt;[root] azurerm_function_app.sub&#45;vending&#45;func&#45;app&#45;001 (expand) -->
<g id="edge18" class="edge">
<title>[root] null_resource.deploy&#45;function&#45;app (expand)&#45;&gt;[root] azurerm_function_app.sub&#45;vending&#45;func&#45;app&#45;001 (expand)</title>
<path fill="none" stroke="black" d="M397.68,-373.1C260.41,-366.88 33.72,-352.41 8.2,-324 -2.5,-312.1 -2.9,-299.53 8.2,-288 49.78,-244.78 873.14,-236.76 1224.97,-235.3"/>
<polygon fill="black" stroke="black" points="1225,-238.8 1234.98,-235.26 1224.97,-231.8 1225,-238.8"/>
</g>
<!-- [root] provider[&quot;registry.terraform.io/hashicorp/null&quot;] -->
<g id="node10" class="node">
<title>[root] provider[&quot;registry.terraform.io/hashicorp/null&quot;]</title>
<polygon fill="none" stroke="black" points="273.2,-324 17.64,-306 273.2,-288 528.75,-306 273.2,-324"/>
<text text-anchor="middle" x="273.2" y="-302.3" font-family="Times New Roman,serif" font-size="14.00">provider[&quot;registry.terraform.io/hashicorp/null&quot;]</text>
</g>
<!-- [root] null_resource.deploy&#45;function&#45;app (expand)&#45;&gt;[root] provider[&quot;registry.terraform.io/hashicorp/null&quot;] -->
<g id="edge19" class="edge">
<title>[root] null_resource.deploy&#45;function&#45;app (expand)&#45;&gt;[root] provider[&quot;registry.terraform.io/hashicorp/null&quot;]</title>
<path fill="none" stroke="black" d="M446.47,-359.97C410.53,-348.98 363.99,-334.75 328.19,-323.81"/>
<polygon fill="black" stroke="black" points="328.98,-320.39 318.4,-320.82 326.94,-327.09 328.98,-320.39"/>
</g>
<!-- [root] provisioner.local&#45;exec -->
<g id="node21" class="node">
<title>[root] provisioner.local&#45;exec</title>
<ellipse fill="none" stroke="black" cx="661.2" cy="-306" rx="114.28" ry="18"/>
<text text-anchor="middle" x="661.2" y="-302.3" font-family="Times New Roman,serif" font-size="14.00">[root] provisioner.local&#45;exec</text>
</g>
<!-- [root] null_resource.deploy&#45;function&#45;app (expand)&#45;&gt;[root] provisioner.local&#45;exec -->
<g id="edge20" class="edge">
<title>[root] null_resource.deploy&#45;function&#45;app (expand)&#45;&gt;[root] provisioner.local&#45;exec</title>
<path fill="none" stroke="black" d="M541.09,-359.88C563.47,-350.02 591.73,-337.58 615.21,-327.25"/>
<polygon fill="black" stroke="black" points="616.87,-330.34 624.61,-323.11 614.05,-323.93 616.87,-330.34"/>
</g>
<!-- [root] null_resource.msi&#45;rbac&#45;assign (expand) -->
<g id="node8" class="node">
<title>[root] null_resource.msi&#45;rbac&#45;assign (expand)</title>
<polygon fill="none" stroke="black" points="851.7,-396 668.7,-396 668.7,-360 851.7,-360 851.7,-396"/>
<text text-anchor="middle" x="760.2" y="-374.3" font-family="Times New Roman,serif" font-size="14.00">null_resource.msi&#45;rbac&#45;assign</text>
</g>
<!-- [root] null_resource.msi&#45;rbac&#45;assign (expand)&#45;&gt;[root] provider[&quot;registry.terraform.io/hashicorp/null&quot;] -->
<g id="edge22" class="edge">
<title>[root] null_resource.msi&#45;rbac&#45;assign (expand)&#45;&gt;[root] provider[&quot;registry.terraform.io/hashicorp/null&quot;]</title>
<path fill="none" stroke="black" d="M668.59,-363.83C581,-351.24 449.74,-332.38 362.81,-319.88"/>
<polygon fill="black" stroke="black" points="363.1,-316.39 352.7,-318.43 362.1,-323.32 363.1,-316.39"/>
</g>
<!-- [root] var.billingAccountID -->
<g id="node11" class="node">
<title>[root] var.billingAccountID</title>
<polygon fill="none" stroke="black" points="920.7,-324 793.7,-324 793.7,-288 926.7,-288 926.7,-318 920.7,-324"/>
<polyline fill="none" stroke="black" points="920.7,-324 920.7,-318 "/>
<polyline fill="none" stroke="black" points="926.7,-318 920.7,-318 "/>
<text text-anchor="middle" x="860.2" y="-302.3" font-family="Times New Roman,serif" font-size="14.00">var.billingAccountID</text>
</g>
<!-- [root] null_resource.msi&#45;rbac&#45;assign (expand)&#45;&gt;[root] var.billingAccountID -->
<g id="edge24" class="edge">
<title>[root] null_resource.msi&#45;rbac&#45;assign (expand)&#45;&gt;[root] var.billingAccountID</title>
<path fill="none" stroke="black" d="M784.66,-359.88C797.49,-350.89 813.39,-339.76 827.29,-330.03"/>
<polygon fill="black" stroke="black" points="829.45,-332.79 835.64,-324.19 825.44,-327.06 829.45,-332.79"/>
</g>
<!-- [root] var.enrolmentAccountID -->
<g id="node14" class="node">
<title>[root] var.enrolmentAccountID</title>
<polygon fill="none" stroke="black" points="1093.7,-324 944.7,-324 944.7,-288 1099.7,-288 1099.7,-318 1093.7,-324"/>
<polyline fill="none" stroke="black" points="1093.7,-324 1093.7,-318 "/>
<polyline fill="none" stroke="black" points="1099.7,-318 1093.7,-318 "/>
<text text-anchor="middle" x="1022.2" y="-302.3" font-family="Times New Roman,serif" font-size="14.00">var.enrolmentAccountID</text>
</g>
<!-- [root] null_resource.msi&#45;rbac&#45;assign (expand)&#45;&gt;[root] var.enrolmentAccountID -->
<g id="edge25" class="edge">
<title>[root] null_resource.msi&#45;rbac&#45;assign (expand)&#45;&gt;[root] var.enrolmentAccountID</title>
<path fill="none" stroke="black" d="M823.95,-359.97C861.51,-349.93 909.2,-337.19 948.38,-326.72"/>
<polygon fill="black" stroke="black" points="949.39,-330.07 958.15,-324.11 947.59,-323.31 949.39,-330.07"/>
</g>
<!-- [root] local.roleAssignmentGUID (expand) -->
<g id="node17" class="node">
<title>[root] local.roleAssignmentGUID (expand)</title>
<ellipse fill="none" stroke="black" cx="1285.2" cy="-306" rx="167.07" ry="18"/>
<text text-anchor="middle" x="1285.2" y="-302.3" font-family="Times New Roman,serif" font-size="14.00">[root] local.roleAssignmentGUID (expand)</text>
</g>
<!-- [root] null_resource.msi&#45;rbac&#45;assign (expand)&#45;&gt;[root] local.roleAssignmentGUID (expand) -->
<g id="edge21" class="edge">
<title>[root] null_resource.msi&#45;rbac&#45;assign (expand)&#45;&gt;[root] local.roleAssignmentGUID (expand)</title>
<path fill="none" stroke="black" d="M851.83,-361.4C854.99,-360.92 858.12,-360.45 861.2,-360 963.22,-345.04 1079.45,-330.7 1164.38,-320.72"/>
<polygon fill="black" stroke="black" points="1164.8,-324.2 1174.32,-319.56 1163.98,-317.24 1164.8,-324.2"/>
</g>
<!-- [root] null_resource.msi&#45;rbac&#45;assign (expand)&#45;&gt;[root] provisioner.local&#45;exec -->
<g id="edge23" class="edge">
<title>[root] null_resource.msi&#45;rbac&#45;assign (expand)&#45;&gt;[root] provisioner.local&#45;exec</title>
<path fill="none" stroke="black" d="M735.98,-359.88C723.08,-350.76 707.06,-339.43 693.16,-329.6"/>
<polygon fill="black" stroke="black" points="695.01,-326.62 684.82,-323.71 690.97,-332.34 695.01,-326.62"/>
</g>
<!-- [root] var.billingScopeResourceID -->
<g id="node12" class="node">
<title>[root] var.billingScopeResourceID</title>
<polygon fill="none" stroke="black" points="1038.2,-396 870.2,-396 870.2,-360 1044.2,-360 1044.2,-390 1038.2,-396"/>
<polyline fill="none" stroke="black" points="1038.2,-396 1038.2,-390 "/>
<polyline fill="none" stroke="black" points="1044.2,-390 1038.2,-390 "/>
<text text-anchor="middle" x="957.2" y="-374.3" font-family="Times New Roman,serif" font-size="14.00">var.billingScopeResourceID</text>
</g>
<!-- [root] local.roleAssignmentGUID (expand)&#45;&gt;[root] azurerm_function_app.sub&#45;vending&#45;func&#45;app&#45;001 (expand) -->
<g id="edge12" class="edge">
<title>[root] local.roleAssignmentGUID (expand)&#45;&gt;[root] azurerm_function_app.sub&#45;vending&#45;func&#45;app&#45;001 (expand)</title>
<path fill="none" stroke="black" d="M1308.68,-288.05C1321.21,-279.01 1336.82,-267.74 1350.43,-257.93"/>
<polygon fill="black" stroke="black" points="1352.53,-260.72 1358.59,-252.03 1348.44,-255.05 1352.53,-260.72"/>
</g>
<!-- [root] meta.count&#45;boundary (EachMode fixup) -->
<g id="node18" class="node">
<title>[root] meta.count&#45;boundary (EachMode fixup)</title>
<ellipse fill="none" stroke="black" cx="1145.2" cy="-450" rx="180.87" ry="18"/>
<text text-anchor="middle" x="1145.2" y="-446.3" font-family="Times New Roman,serif" font-size="14.00">[root] meta.count&#45;boundary (EachMode fixup)</text>
</g>
<!-- [root] meta.count&#45;boundary (EachMode fixup)&#45;&gt;[root] null_resource.deploy&#45;function&#45;app (expand) -->
<g id="edge13" class="edge">
<title>[root] meta.count&#45;boundary (EachMode fixup)&#45;&gt;[root] null_resource.deploy&#45;function&#45;app (expand)</title>
<path fill="none" stroke="black" d="M1028.01,-436.24C911.15,-423.52 732.81,-404.11 616.85,-391.48"/>
<polygon fill="black" stroke="black" points="617.19,-388 606.87,-390.4 616.44,-394.96 617.19,-388"/>
</g>
<!-- [root] meta.count&#45;boundary (EachMode fixup)&#45;&gt;[root] null_resource.msi&#45;rbac&#45;assign (expand) -->
<g id="edge14" class="edge">
<title>[root] meta.count&#45;boundary (EachMode fixup)&#45;&gt;[root] null_resource.msi&#45;rbac&#45;assign (expand)</title>
<path fill="none" stroke="black" d="M1062.6,-433.98C1003.77,-423.29 924.35,-408.85 861.66,-397.45"/>
<polygon fill="black" stroke="black" points="862.21,-393.99 851.75,-395.65 860.96,-400.88 862.21,-393.99"/>
</g>
<!-- [root] meta.count&#45;boundary (EachMode fixup)&#45;&gt;[root] var.billingScopeResourceID -->
<g id="edge17" class="edge">
<title>[root] meta.count&#45;boundary (EachMode fixup)&#45;&gt;[root] var.billingScopeResourceID</title>
<path fill="none" stroke="black" d="M1100.64,-432.41C1074.32,-422.61 1040.77,-410.12 1012.73,-399.68"/>
<polygon fill="black" stroke="black" points="1013.66,-396.29 1003.06,-396.08 1011.21,-402.85 1013.66,-396.29"/>
</g>
<!-- [root] output.sub&#45;vending&#45;func&#45;app&#45;001&#45;default&#45;hostname (expand) -->
<g id="node19" class="node">
<title>[root] output.sub&#45;vending&#45;func&#45;app&#45;001&#45;default&#45;hostname (expand)</title>
<ellipse fill="none" stroke="black" cx="1317.2" cy="-378" rx="255.35" ry="18"/>
<text text-anchor="middle" x="1317.2" y="-374.3" font-family="Times New Roman,serif" font-size="14.00">[root] output.sub&#45;vending&#45;func&#45;app&#45;001&#45;default&#45;hostname (expand)</text>
</g>
<!-- [root] meta.count&#45;boundary (EachMode fixup)&#45;&gt;[root] output.sub&#45;vending&#45;func&#45;app&#45;001&#45;default&#45;hostname (expand) -->
<g id="edge15" class="edge">
<title>[root] meta.count&#45;boundary (EachMode fixup)&#45;&gt;[root] output.sub&#45;vending&#45;func&#45;app&#45;001&#45;default&#45;hostname (expand)</title>
<path fill="none" stroke="black" d="M1185.96,-432.41C1210,-422.62 1240.65,-410.15 1266.28,-399.72"/>
<polygon fill="black" stroke="black" points="1267.89,-402.85 1275.83,-395.83 1265.25,-396.36 1267.89,-402.85"/>
</g>
<!-- [root] output.sub&#45;vending&#45;func&#45;app&#45;001&#45;host&#45;default&#45;key (expand) -->
<g id="node20" class="node">
<title>[root] output.sub&#45;vending&#45;func&#45;app&#45;001&#45;host&#45;default&#45;key (expand)</title>
<ellipse fill="none" stroke="black" cx="1843.2" cy="-378" rx="252.36" ry="18"/>
<text text-anchor="middle" x="1843.2" y="-374.3" font-family="Times New Roman,serif" font-size="14.00">[root] output.sub&#45;vending&#45;func&#45;app&#45;001&#45;host&#45;default&#45;key (expand)</text>
</g>
<!-- [root] meta.count&#45;boundary (EachMode fixup)&#45;&gt;[root] output.sub&#45;vending&#45;func&#45;app&#45;001&#45;host&#45;default&#45;key (expand) -->
<g id="edge16" class="edge">
<title>[root] meta.count&#45;boundary (EachMode fixup)&#45;&gt;[root] output.sub&#45;vending&#45;func&#45;app&#45;001&#45;host&#45;default&#45;key (expand)</title>
<path fill="none" stroke="black" d="M1267.58,-436.73C1386.16,-424.83 1566.23,-406.78 1693.34,-394.03"/>
<polygon fill="black" stroke="black" points="1693.94,-397.49 1703.54,-393.01 1693.24,-390.52 1693.94,-397.49"/>
</g>
<!-- [root] output.sub&#45;vending&#45;func&#45;app&#45;001&#45;default&#45;hostname (expand)&#45;&gt;[root] azurerm_function_app.sub&#45;vending&#45;func&#45;app&#45;001 (expand) -->
<g id="edge26" class="edge">
<title>[root] output.sub&#45;vending&#45;func&#45;app&#45;001&#45;default&#45;hostname (expand)&#45;&gt;[root] azurerm_function_app.sub&#45;vending&#45;func&#45;app&#45;001 (expand)</title>
<path fill="none" stroke="black" d="M1410.14,-361.22C1430.13,-353.36 1448.93,-341.59 1461.2,-324 1470.35,-310.88 1468.72,-302.12 1461.2,-288 1454.5,-275.45 1443.38,-265.35 1431.55,-257.47"/>
<polygon fill="black" stroke="black" points="1433.23,-254.39 1422.88,-252.12 1429.55,-260.34 1433.23,-254.39"/>
</g>
<!-- [root] output.sub&#45;vending&#45;func&#45;app&#45;001&#45;host&#45;default&#45;key (expand)&#45;&gt;[root] data.azurerm_function_app_host_keys.sub&#45;vending&#45;func&#45;app&#45;001 (expand) -->
<g id="edge27" class="edge">
<title>[root] output.sub&#45;vending&#45;func&#45;app&#45;001&#45;host&#45;default&#45;key (expand)&#45;&gt;[root] data.azurerm_function_app_host_keys.sub&#45;vending&#45;func&#45;app&#45;001 (expand)</title>
<path fill="none" stroke="black" d="M1843.2,-359.7C1843.2,-351.98 1843.2,-342.71 1843.2,-334.11"/>
<polygon fill="black" stroke="black" points="1846.7,-334.1 1843.2,-324.1 1839.7,-334.1 1846.7,-334.1"/>
</g>
<!-- [root] provider[&quot;registry.terraform.io/hashicorp/azurerm&quot;] (close) -->
<g id="node22" class="node">
<title>[root] provider[&quot;registry.terraform.io/hashicorp/azurerm&quot;] (close)</title>
<ellipse fill="none" stroke="black" cx="1835.2" cy="-450" rx="246.96" ry="18"/>
<text text-anchor="middle" x="1835.2" y="-446.3" font-family="Times New Roman,serif" font-size="14.00">[root] provider[&quot;registry.terraform.io/hashicorp/azurerm&quot;] (close)</text>
</g>
<!-- [root] provider[&quot;registry.terraform.io/hashicorp/azurerm&quot;] (close)&#45;&gt;[root] data.azurerm_function_app_host_keys.sub&#45;vending&#45;func&#45;app&#45;001 (expand) -->
<g id="edge28" class="edge">
<title>[root] provider[&quot;registry.terraform.io/hashicorp/azurerm&quot;] (close)&#45;&gt;[root] data.azurerm_function_app_host_keys.sub&#45;vending&#45;func&#45;app&#45;001 (expand)</title>
<path fill="none" stroke="black" d="M1987.53,-435.81C2039.3,-427.92 2088.17,-415.49 2104.2,-396 2135.24,-358.24 2099.99,-336.44 2046.39,-323.88"/>
<polygon fill="black" stroke="black" points="2047.07,-320.44 2036.55,-321.71 2045.56,-327.28 2047.07,-320.44"/>
</g>
<!-- [root] provider[&quot;registry.terraform.io/hashicorp/null&quot;] (close) -->
<g id="node23" class="node">
<title>[root] provider[&quot;registry.terraform.io/hashicorp/null&quot;] (close)</title>
<ellipse fill="none" stroke="black" cx="414.2" cy="-450" rx="231.26" ry="18"/>
<text text-anchor="middle" x="414.2" y="-446.3" font-family="Times New Roman,serif" font-size="14.00">[root] provider[&quot;registry.terraform.io/hashicorp/null&quot;] (close)</text>
</g>
<!-- [root] provider[&quot;registry.terraform.io/hashicorp/null&quot;] (close)&#45;&gt;[root] null_resource.deploy&#45;function&#45;app (expand) -->
<g id="edge29" class="edge">
<title>[root] provider[&quot;registry.terraform.io/hashicorp/null&quot;] (close)&#45;&gt;[root] null_resource.deploy&#45;function&#45;app (expand)</title>
<path fill="none" stroke="black" d="M435.5,-432.05C446.66,-423.18 460.5,-412.17 472.67,-402.48"/>
<polygon fill="black" stroke="black" points="475.14,-405 480.78,-396.03 470.78,-399.52 475.14,-405"/>
</g>
<!-- [root] provider[&quot;registry.terraform.io/hashicorp/null&quot;] (close)&#45;&gt;[root] null_resource.msi&#45;rbac&#45;assign (expand) -->
<g id="edge30" class="edge">
<title>[root] provider[&quot;registry.terraform.io/hashicorp/null&quot;] (close)&#45;&gt;[root] null_resource.msi&#45;rbac&#45;assign (expand)</title>
<path fill="none" stroke="black" d="M493.14,-433.03C544.59,-422.62 611.98,-408.99 666.19,-398.02"/>
<polygon fill="black" stroke="black" points="667.05,-401.42 676.15,-396 665.66,-394.56 667.05,-401.42"/>
</g>
<!-- [root] provisioner.local&#45;exec (close) -->
<g id="node24" class="node">
<title>[root] provisioner.local&#45;exec (close)</title>
<ellipse fill="none" stroke="black" cx="805.2" cy="-450" rx="141.88" ry="18"/>
<text text-anchor="middle" x="805.2" y="-446.3" font-family="Times New Roman,serif" font-size="14.00">[root] provisioner.local&#45;exec (close)</text>
</g>
<!-- [root] provisioner.local&#45;exec (close)&#45;&gt;[root] null_resource.deploy&#45;function&#45;app (expand) -->
<g id="edge31" class="edge">
<title>[root] provisioner.local&#45;exec (close)&#45;&gt;[root] null_resource.deploy&#45;function&#45;app (expand)</title>
<path fill="none" stroke="black" d="M740.19,-433.98C695.05,-423.55 634.5,-409.56 585.77,-398.31"/>
<polygon fill="black" stroke="black" points="586.4,-394.86 575.87,-396.02 584.83,-401.68 586.4,-394.86"/>
</g>
<!-- [root] provisioner.local&#45;exec (close)&#45;&gt;[root] null_resource.msi&#45;rbac&#45;assign (expand) -->
<g id="edge32" class="edge">
<title>[root] provisioner.local&#45;exec (close)&#45;&gt;[root] null_resource.msi&#45;rbac&#45;assign (expand)</title>
<path fill="none" stroke="black" d="M794.07,-431.7C788.84,-423.56 782.5,-413.69 776.72,-404.7"/>
<polygon fill="black" stroke="black" points="779.54,-402.62 771.19,-396.1 773.65,-406.41 779.54,-402.62"/>
</g>
<!-- [root] root -->
<g id="node25" class="node">
<title>[root] root</title>
<ellipse fill="none" stroke="black" cx="975.2" cy="-522" rx="49.29" ry="18"/>
<text text-anchor="middle" x="975.2" y="-518.3" font-family="Times New Roman,serif" font-size="14.00">[root] root</text>
</g>
<!-- [root] root&#45;&gt;[root] meta.count&#45;boundary (EachMode fixup) -->
<g id="edge33" class="edge">
<title>[root] root&#45;&gt;[root] meta.count&#45;boundary (EachMode fixup)</title>
<path fill="none" stroke="black" d="M1006.77,-508C1031.62,-497.77 1066.7,-483.32 1095.33,-471.53"/>
<polygon fill="black" stroke="black" points="1096.86,-474.69 1104.77,-467.64 1094.19,-468.22 1096.86,-474.69"/>
</g>
<!-- [root] root&#45;&gt;[root] provider[&quot;registry.terraform.io/hashicorp/azurerm&quot;] (close) -->
<g id="edge34" class="edge">
<title>[root] root&#45;&gt;[root] provider[&quot;registry.terraform.io/hashicorp/azurerm&quot;] (close)</title>
<path fill="none" stroke="black" d="M1022.97,-517.11C1143.92,-507.27 1466.87,-480.98 1667.2,-464.67"/>
<polygon fill="black" stroke="black" points="1667.56,-468.16 1677.24,-463.86 1666.99,-461.18 1667.56,-468.16"/>
</g>
<!-- [root] root&#45;&gt;[root] provider[&quot;registry.terraform.io/hashicorp/null&quot;] (close) -->
<g id="edge35" class="edge">
<title>[root] root&#45;&gt;[root] provider[&quot;registry.terraform.io/hashicorp/null&quot;] (close)</title>
<path fill="none" stroke="black" d="M929.29,-515.27C845.42,-504.81 664.72,-482.26 541.28,-466.86"/>
<polygon fill="black" stroke="black" points="541.36,-463.34 531.01,-465.58 540.5,-470.29 541.36,-463.34"/>
</g>
<!-- [root] root&#45;&gt;[root] provisioner.local&#45;exec (close) -->
<g id="edge36" class="edge">
<title>[root] root&#45;&gt;[root] provisioner.local&#45;exec (close)</title>
<path fill="none" stroke="black" d="M943.62,-508C918.6,-497.7 883.2,-483.12 854.46,-471.29"/>
<polygon fill="black" stroke="black" points="855.57,-467.96 844.99,-467.39 852.91,-474.43 855.57,-467.96"/>
</g>
</g>
</svg>
